<?xml version="1.0" encoding="UTF-8"?><svg id="Capa_2" xmlns="http://www.w3.org/2000/svg" viewBox="0 0 383.38 384"><defs><style>.cls-1{fill:#fff;}</style></defs><g id="Capa_2-2"><path class="cls-1" d="M179.77,0c7.98,0,15.97,0,23.95,0,.96,.21,1.91,.54,2.88,.61,29.7,2.25,57.5,10.77,82.9,26.34,49.72,30.47,80.18,74.47,90.93,131.96,1.3,6.97,1.97,14.06,2.94,21.09v23.25c-.81,6.54-1.29,13.14-2.49,19.61-12.39,66.74-49.22,114.81-110.32,144.07-8.13,3.89-16.81,6.63-25.6,10.04V234.48h41.02c2.08-16.15,4.11-31.92,6.21-48.2h-47.37c0-11.68-.21-22.92,.06-34.15,.29-12.41,6.65-18.84,19.09-19.38,8.47-.37,16.96-.19,25.44-.25,1.31,0,2.63,0,3.88,0v-43.8c-15.03-.23-29.87-1.16-44.62-.39-7.62,.4-15.58,2.77-22.52,6.07-20.14,9.56-28.99,27.1-30.53,48.49-.93,12.94-.39,25.98-.51,38.98-.01,1.45,0,2.9,0,4.77h-40.94v47.9h40.94v4.44c0,47,0,93.99-.02,140.99,0,1.35-.24,2.71-.36,4.06h-14.97c-.96-.21-1.91-.54-2.88-.62-22.33-1.7-43.64-7.27-64.09-16.45C38.18,333.42-7.59,254.07,1.04,172.72c4.42-41.66,20.43-78.3,48.54-109.33C79.13,30.77,115.66,10.44,159.1,2.9,165.95,1.71,172.88,.95,179.77,0Z"/></g></svg>